<?xml version="1.0" encoding="UTF-8"?>
<svg version="1.1" xmlns="http://www.w3.org/2000/svg" width="39" height="32">
<path d="M0 0 C0.82886719 -0.01546875 1.65773438 -0.0309375 2.51171875 -0.046875 C7.99424632 -0.01200996 11.15510385 0.87925321 15.5 4.5 C18.92917072 8.19989473 19.79969749 11.0792349 20 16 C19.79969749 20.9207651 18.92917072 23.80010527 15.5 27.5 C10.33188864 31.82126922 6.38097192 32.09198386 -0.0625 31.9375 C-0.89974609 31.94458984 -1.73699219 31.95167969 -2.59960938 31.95898438 C-7.37931379 31.9097871 -10.62704214 31.58361216 -14.5 28.5 C-19.1146775 23.24439507 -19.85842669 20.1537686 -19.77734375 13.26171875 C-19.26097795 8.119879 -16.78096324 5.56746937 -12.9453125 2.37109375 C-8.45910869 -0.06529131 -5.01675427 -0.09362527 0 0 Z M-2.5 11.5 C-2.933125 12.551875 -2.933125 12.551875 -3.375 13.625 C-3.74625 14.24375 -4.1175 14.8625 -4.5 15.5 C-8.125 16.25 -8.125 16.25 -11.5 16.5 C-10.33770924 20.18547548 -10.33770924 20.18547548 -7.6875 22.875 C-4.87518255 23.67851927 -3.26557013 23.42185671 -0.5 22.5 C1.72830794 20.68434168 2.87810301 18.93284549 4.5 16.5 C7.625 15.8125 7.625 15.8125 10.5 15.5 C10.12005832 12.74542282 9.6926367 11.67979426 7.625 9.75 C3.52059086 7.33564168 1.07330161 8.93455269 -2.5 11.5 Z " fill="#FBB88E" transform="translate(19.5,-0.5)"/>
<path d="M0 0 C0.82886719 -0.01546875 1.65773438 -0.0309375 2.51171875 -0.046875 C7.98602214 -0.01206226 11.17763595 0.85837525 15.5 4.5 C17.9761458 7.56260138 19.40691331 9.42950309 19.75 13.375 C19.6675 14.07625 19.585 14.7775 19.5 15.5 C16.4504665 15.78769184 13.53731734 15.95641262 10.5 15.5 C8.75 13.0625 8.75 13.0625 7.5 10.5 C4.72737025 9.43360394 3.22090778 9.2879683 0.375 10.125 C-1.72030961 11.42232541 -1.72030961 11.42232541 -2.63671875 14.06640625 C-4.5 16.5 -4.5 16.5 -8.07421875 16.98828125 C-9.44616376 16.95514248 -10.8176753 16.89563595 -12.1875 16.8125 C-12.88939453 16.78994141 -13.59128906 16.76738281 -14.31445312 16.74414062 C-16.0438833 16.68531647 -17.77221438 16.59563389 -19.5 16.5 C-19.6949987 11.11503601 -18.99021841 8.72500123 -15.5 4.5 C-10.37891502 0.19327716 -6.40305208 -0.11949708 0 0 Z " fill="#4A79A0" transform="translate(19.5,-0.5)"/>
<path d="M0 0 C6.16857998 0.3701148 8.75775103 1.75775103 13 6 C15.08444253 9.03191641 15.20216133 11.36109611 15 15 C11.94998682 15.28773709 9.0385411 15.44955243 6 15 C4.125 12.625 4.125 12.625 3 10 C2.01 9.34 1.02 8.68 0 8 C-0.40843923 5.28796348 -0.13336867 2.7562858 0 0 Z " fill="#65C1CD" transform="translate(24,0)"/>
<path d="M0 0 C-0.763125 0.598125 -1.52625 1.19625 -2.3125 1.8125 C-6.16899602 4.95150839 -8.21953949 6.86420119 -9.6875 11.6875 C-9.93886719 12.49574219 -10.19023437 13.30398438 -10.44921875 14.13671875 C-10.63097656 14.75160156 -10.81273437 15.36648438 -11 16 C-13.64 16 -16.28 16 -19 16 C-19.50604514 10.68652603 -18.38433761 8.09682973 -15 4 C-10.10961554 -0.3217351 -6.21549897 -0.49723992 0 0 Z " fill="#74E2DF" transform="translate(19,0)"/>
<path d="M0 0 C2.64 0 5.28 0 8 0 C8.35773958 3.75626559 8.13556761 5.73929307 6.375 9.125 C3.29326955 12.8555158 0.63266955 15.73285514 -4.38671875 16.2421875 C-6.6068347 16.24915804 -8.78753759 16.17699699 -11 16 C-10.443125 15.608125 -9.88625 15.21625 -9.3125 14.8125 C-3.47313779 10.23570259 -1.34313781 7.20410278 0 0 Z " fill="#F7CE8F" transform="translate(31,15)"/>
<path d="M0 0 C0 3.63 0 7.26 0 11 C-1.98 11 -3.96 11 -6 11 C-5.50928382 4.62068966 -5.50928382 4.62068966 -3 1.5625 C-1 0 -1 0 0 0 Z " fill="#406292" transform="translate(14,5)"/>
<path d="M0 0 C1.65 0 3.3 0 5 0 C5 3.63 5 7.26 5 11 C2.5 10 2.5 10 0 8 C-0.46837899 5.20625708 -0.23424505 2.85778964 0 0 Z " fill="#5CAABE" transform="translate(24,0)"/>
<path d="M0 0 C1.65 0 3.3 0 5 0 C5 2.64 5 5.28 5 8 C3.35 8.33 1.7 8.66 0 9 C0 6.03 0 3.06 0 0 Z " fill="#5291AE" transform="translate(19,0)"/>
<path d="M0 0 C2.7972908 2.06756277 3.02692273 3.14440371 3.6875 6.6875 C3.790625 7.780625 3.89375 8.87375 4 10 C2.35 10 0.7 10 -1 10 C-1.02689216 8.52093108 -1.04634621 7.04172517 -1.0625 5.5625 C-1.07410156 4.73878906 -1.08570313 3.91507813 -1.09765625 3.06640625 C-1 1 -1 1 0 0 Z " fill="#6BD9DA" transform="translate(35,5)"/>
</svg>
